<svg width="1009" height="208" viewBox="0 0 1009 208" fill="#fff" xmlns="http://www.w3.org/2000/svg">
<path d="M82.9893 149.84L34.1504 208H0.173828V200.637L62.9385 125.985L82.9893 149.84ZM34.5 25.5L181.5 200.5V208H147.477L0 33V25.5H34.5ZM181.459 32.5781L118.694 107.322L98.6592 83.5L147.457 25.46H181.459V32.5781Z" fill="currentColor"/>
<path d="M274.265 25.75V56.8477H239.303C237.26 56.848 235.604 58.5039 235.603 60.5469V173.776C235.603 175.82 237.259 177.475 239.303 177.477H352.826C354.869 177.475 356.525 175.82 356.525 173.776V60.5469C356.525 58.5038 354.869 56.8478 352.826 56.8477H322.727V25.75H359.477C374.388 25.7502 386.477 37.8385 386.477 52.75V181C386.477 195.912 374.388 208 359.477 208H232.5C217.588 208 205.5 195.912 205.5 181V52.75C205.5 37.8383 217.588 25.75 232.5 25.75H274.265ZM313.756 80.5H283.041L283.318 4.16211H313.756V80.5Z" fill="currentColor"/>
<path d="M566.581 24.8945C581.492 24.8947 593.581 36.983 593.581 51.8945V116.977C593.581 131.888 581.492 143.977 566.581 143.977H544.69L565.627 168.984L592.53 200.887V208H558.308L526.86 170.437L504.115 143.977H441.207V207.999H410.477V24.8945H566.581ZM446.206 55.625C443.445 55.6252 441.206 57.8641 441.206 60.625V108.246C441.206 111.008 443.445 113.246 446.206 113.246H557.85C560.611 113.246 562.849 111.008 562.85 108.246V60.625C562.849 57.864 560.611 55.6251 557.85 55.625H446.206Z" fill="currentColor"/>
<path d="M617.581 24H800.294V31.0769L773.273 56.1678H651.679V110.21H773.273V144.308H651.679V177.119H773.273L801.581 200.923V208H617.581V24Z" fill="currentColor"/>
<path d="M859.583 25.46V159.948L972.811 25.5H1007.04V32.5L922.371 133.238L933.226 141.896L1006.87 200.637V208H972.89L905.082 153.81L899.04 161L859.583 207.948V208H825.581V25.46H859.583Z" fill="currentColor"/>
</svg>
